<?xml version="1.0" standalone="no"?>
<!DOCTYPE svg PUBLIC "-//W3C//DTD SVG 20010904//EN"
 "http://www.w3.org/TR/2001/REC-SVG-20010904/DTD/svg10.dtd">
<svg version="1.0" xmlns="http://www.w3.org/2000/svg"
 width="1000.000000pt" height="1000.000000pt" viewBox="0 0 1000.000000 1000.000000"
 preserveAspectRatio="xMidYMid meet">
<metadata>
Created by potrace 1.11, written by Peter Selinger 2001-2013
</metadata>
<g transform="translate(0.000000,1000.000000) scale(0.100000,-0.100000)"
fill="#000000" stroke="none">
<path d="M4816 9283 c-1 -2 -34 -5 -72 -8 -86 -6 -148 -13 -199 -20 -22 -4
-53 -9 -70 -11 -16 -2 -64 -11 -105 -19 -41 -9 -84 -17 -95 -19 -11 -2 -40 -9
-65 -16 -25 -7 -49 -13 -55 -14 -5 -1 -16 -5 -22 -9 -7 -5 -13 -6 -13 -3 0 3
-30 -6 -67 -18 -38 -13 -72 -23 -76 -24 -7 0 -22 -5 -92 -32 -11 -4 -45 -17
-75 -29 -30 -13 -59 -24 -65 -25 -43 -12 -338 -156 -343 -168 -2 -4 -8 -8 -14
-8 -26 0 -398 -251 -463 -313 -7 -7 -32 -28 -56 -47 -57 -45 -310 -298 -374
-374 -28 -32 -56 -64 -62 -72 -7 -7 -13 -17 -13 -22 0 -6 -4 -12 -8 -14 -10
-4 -95 -116 -110 -145 -7 -12 -18 -28 -24 -35 -7 -8 -18 -23 -25 -33 -93 -152
-147 -246 -183 -320 -24 -49 -49 -93 -55 -97 -5 -4 -6 -8 -1 -8 4 0 2 -10 -6
-22 -8 -13 -21 -41 -28 -63 -7 -22 -20 -50 -28 -62 -8 -13 -11 -23 -8 -23 4 0
0 -12 -7 -27 -39 -77 -128 -378 -153 -513 -4 -25 -8 -47 -9 -50 -1 -3 -5 -19
-9 -37 -4 -18 -9 -47 -11 -65 -2 -18 -6 -53 -10 -78 -20 -142 -28 -276 -28
-435 1 -135 9 -346 14 -352 1 -2 2 -11 3 -20 2 -15 6 -50 21 -158 12 -81 64
-315 76 -337 6 -10 8 -18 5 -18 -3 0 6 -31 19 -70 13 -39 21 -70 17 -70 -3 0
-1 -5 6 -12 7 -7 12 -20 12 -30 0 -10 4 -26 9 -36 5 -9 13 -28 19 -42 5 -14
18 -45 28 -70 27 -69 53 -129 85 -197 17 -35 30 -66 30 -70 0 -5 6 -15 13 -23
7 -8 27 -44 46 -80 69 -133 259 -415 333 -495 11 -11 31 -36 46 -55 14 -18 37
-46 51 -60 14 -15 41 -44 61 -66 95 -102 288 -276 394 -355 33 -24 62 -46 65
-50 12 -13 241 -160 315 -201 100 -56 289 -148 304 -148 6 0 11 -4 11 -10 0
-5 3 -9 8 -8 6 2 89 -27 147 -53 11 -4 65 -23 120 -40 55 -17 107 -34 115 -37
8 -3 24 -7 34 -9 11 -2 42 -10 70 -18 28 -8 62 -16 76 -19 14 -3 36 -7 50 -10
48 -11 75 -16 110 -21 19 -3 46 -7 60 -10 53 -9 153 -21 265 -31 92 -9 465
-12 480 -5 6 3 21 6 35 7 22 1 121 11 200 20 14 1 25 3 25 4 0 2 32 8 84 15
25 3 47 8 50 10 3 1 22 6 41 9 19 3 44 8 55 10 40 8 211 55 235 64 14 5 28 10
33 11 4 0 9 2 12 2 3 1 8 2 13 3 4 1 21 6 37 13 60 23 70 26 75 27 25 6 226
91 231 98 3 5 9 9 13 8 10 -3 220 102 224 112 2 4 8 8 13 8 5 0 46 23 90 50
44 28 85 50 89 50 5 0 13 6 17 13 4 6 20 18 35 26 15 8 36 22 45 31 10 8 38
30 63 47 160 110 403 336 555 518 28 33 60 71 73 85 12 14 22 28 22 32 0 3 7
14 17 23 16 17 41 51 111 155 20 30 40 57 44 58 5 2 8 7 8 12 0 4 17 37 39 72
21 35 50 86 65 113 15 28 31 57 36 65 11 17 68 142 100 215 11 28 25 59 30 70
9 22 44 117 46 125 0 3 6 18 12 33 7 16 12 34 12 41 0 7 3 16 7 20 4 3 8 12 9
19 1 7 11 44 22 82 21 69 50 187 58 235 3 14 9 48 14 75 5 28 12 64 14 80 2
17 8 50 12 75 4 25 8 61 10 80 1 19 6 78 10 130 9 111 9 383 -1 490 -3 41 -8
91 -9 110 -2 19 -7 54 -11 78 -4 23 -8 52 -10 65 -1 12 -8 49 -14 82 -6 33
-14 74 -17 90 -3 17 -12 57 -21 90 -8 33 -17 71 -20 84 -2 14 -6 28 -9 33 -3
4 -7 16 -9 25 -2 10 -10 37 -19 61 -8 23 -12 42 -9 42 4 0 2 5 -5 12 -7 7 -12
20 -12 30 0 10 -4 26 -9 36 -5 9 -13 28 -19 42 -5 14 -29 72 -53 130 -23 58
-48 108 -53 112 -6 4 -7 8 -3 8 4 0 -3 20 -17 44 -13 24 -23 46 -20 49 2 2 -2
10 -11 17 -8 7 -15 16 -15 21 0 4 -22 47 -50 95 -27 48 -50 89 -50 91 0 2 -4
9 -10 16 -25 31 -100 148 -100 157 0 6 -3 10 -7 10 -5 0 -19 17 -33 38 -14 20
-29 42 -35 49 -5 7 -15 18 -20 25 -100 126 -165 199 -296 331 -86 86 -160 157
-165 157 -5 0 -16 9 -24 20 -8 11 -18 20 -23 20 -4 0 -18 10 -31 23 -12 12
-35 31 -50 42 -15 11 -44 33 -64 48 -170 133 -502 318 -717 401 -38 15 -79 31
-90 36 -43 18 -111 42 -130 46 -11 2 -47 12 -80 23 -108 34 -306 79 -425 96
-25 4 -58 9 -75 11 -103 17 -250 26 -443 28 -96 1 -175 0 -176 -1z m-61 -1387
c28 -4 61 -10 75 -12 14 -3 36 -7 50 -9 14 -2 50 -11 80 -20 30 -9 62 -17 70
-19 8 -1 28 -8 43 -14 16 -7 33 -12 38 -12 5 0 17 -4 27 -9 40 -22 138 -64
145 -63 4 1 7 -3 7 -9 0 -5 3 -8 8 -5 4 2 26 -9 50 -25 23 -16 45 -29 47 -29
8 0 109 -67 134 -89 13 -12 27 -21 31 -21 23 0 248 -238 328 -345 26 -35 62
-96 62 -105 0 -5 3 -10 8 -10 21 0 134 -261 167 -385 24 -90 26 -98 30 -125 2
-14 7 -36 9 -50 25 -114 25 -461 1 -532 -2 -7 -6 -26 -9 -43 -8 -49 -17 -88
-21 -95 -2 -4 -7 -22 -10 -40 -3 -19 -11 -40 -17 -47 -6 -7 -8 -13 -5 -13 14
0 -120 -304 -141 -320 -4 -3 -18 -25 -32 -50 -13 -25 -29 -51 -35 -58 -5 -7
-14 -18 -20 -25 -5 -7 -23 -30 -40 -52 -69 -93 -177 -200 -285 -283 -30 -23
-59 -46 -65 -50 -49 -38 -305 -178 -305 -166 0 3 -15 -3 -32 -13 -18 -9 -36
-18 -40 -19 -5 -1 -10 -2 -13 -3 -3 0 -7 -1 -10 -1 -3 -1 -24 -8 -47 -16 -24
-9 -54 -18 -68 -20 -14 -3 -43 -10 -65 -16 -22 -6 -53 -12 -70 -14 -16 -2 -41
-6 -55 -9 -19 -4 -200 -16 -255 -17 -43 -1 -226 18 -252 26 -10 3 -34 7 -53
10 -19 3 -60 13 -90 21 -30 9 -62 17 -70 19 -43 11 -259 105 -300 131 -8 5
-17 10 -20 10 -7 1 -154 97 -160 105 -3 3 -25 21 -50 40 -93 71 -300 291 -300
319 0 6 -4 11 -8 11 -7 0 -15 12 -75 109 -53 88 -116 227 -147 326 -47 151
-48 157 -54 200 -4 22 -8 51 -11 65 -22 121 -22 374 0 489 3 14 8 41 11 60 29
169 108 373 211 545 48 79 105 156 116 156 4 0 6 4 3 9 -10 16 222 237 322
308 53 38 111 75 127 83 17 8 32 18 35 21 5 6 110 62 120 64 3 0 43 16 90 34
72 28 178 60 255 77 20 4 65 11 160 23 65 9 305 7 370 -3z"/>
<path d="M4290 7174 c-147 -31 -281 -128 -337 -243 -34 -70 -34 -69 -39 -171
-3 -71 1 -94 20 -142 30 -73 77 -132 132 -164 24 -14 44 -29 44 -33 0 -4 -17
-17 -38 -29 -43 -24 -152 -125 -152 -140 0 -6 -4 -12 -8 -14 -13 -5 -60 -110
-68 -149 -10 -50 -12 -170 -4 -199 28 -96 37 -121 63 -165 33 -58 138 -162
188 -187 48 -24 113 -53 119 -53 3 -1 30 -7 60 -15 121 -32 368 -13 477 36 17
8 36 14 42 14 6 0 11 5 11 10 0 6 7 10 15 10 16 0 77 39 83 53 2 4 8 7 13 7
15 0 92 81 119 125 13 22 27 42 31 45 3 3 16 39 29 79 39 129 30 265 -26 378
-47 94 -157 190 -263 229 -25 10 -48 19 -50 20 -2 2 14 20 36 41 51 48 93 112
101 155 11 53 7 195 -6 223 -7 14 -18 37 -24 53 -42 91 -180 201 -275 218 -14
3 -31 8 -36 11 -21 13 -194 11 -257 -3z m200 -280 c89 -38 115 -188 47 -267
-57 -66 -188 -76 -245 -19 -45 45 -73 148 -49 180 5 6 7 12 3 12 -14 0 25 60
51 78 59 41 124 47 193 16z m70 -592 c45 -5 111 -45 145 -87 88 -110 89 -270
3 -375 -18 -22 -84 -71 -100 -74 -7 -2 -33 -8 -58 -15 -64 -18 -175 -9 -225
19 -54 30 -96 71 -119 117 -10 21 -22 45 -26 54 -15 29 -5 172 14 208 23 44
96 122 107 115 5 -3 9 -1 9 3 0 23 181 57 225 42 11 -4 22 -7 25 -7z"/>
</g>
</svg>
